<?xml version="1.0" standalone="no"?>
<!DOCTYPE svg PUBLIC "-//W3C//DTD SVG 20010904//EN"
 "http://www.w3.org/TR/2001/REC-SVG-20010904/DTD/svg10.dtd">
<svg version="1.0" xmlns="http://www.w3.org/2000/svg"
 width="256.000000pt" height="256.000000pt" viewBox="0 0 256.000000 256.000000"
 preserveAspectRatio="xMidYMid meet">
<metadata>
Created by potrace 1.11, written by Peter Selinger 2001-2013
</metadata>
<g transform="translate(0.000000,256.000000) scale(0.100000,-0.100000)"
fill="#000000" stroke="none">
<path d="M1158 2204 c-165 -29 -341 -123 -438 -232 -64 -72 -124 -189 -146
-288 -13 -62 -15 -107 -11 -238 3 -88 9 -171 12 -183 7 -21 4 -23 -37 -23 -60
0 -85 -20 -104 -87 -31 -108 -2 -252 80 -391 46 -78 62 -92 120 -109 25 -8 31
-17 47 -80 10 -39 30 -91 45 -115 39 -61 137 -161 222 -225 39 -30 72 -59 72
-65 0 -7 -14 -8 -40 -4 -29 4 -54 1 -88 -13 -26 -11 -54 -21 -62 -24 -10 -3
-6 -8 14 -16 21 -8 38 -9 59 -1 38 13 35 14 39 -12 3 -20 14 -24 103 -40 56
-10 155 -17 225 -18 110 0 162 5 334 36 25 5 40 13 43 25 4 14 11 17 29 13 13
-3 36 -3 51 1 l28 7 -40 21 c-27 14 -57 20 -92 19 -29 -1 -55 2 -57 7 -3 5 22
28 57 52 81 57 185 160 231 230 22 33 43 84 54 126 l17 71 45 13 c36 11 51 24
78 64 82 124 112 214 112 337 0 127 -29 174 -110 180 -34 3 -35 4 -32 43 1 22
3 117 5 210 2 163 1 173 -26 250 -54 154 -142 263 -279 349 -120 74 -305 128
-435 125 -26 0 -83 -7 -125 -15z m-531 -876 c-3 -8 -6 -5 -6 6 -1 11 2 17 5
13 3 -3 4 -12 1 -19z m318 -118 c3 -6 -4 -10 -17 -10 -18 0 -20 2 -8 10 19 12
18 12 25 0z m695 0 c13 -8 13 -10 -2 -10 -9 0 -20 5 -23 10 -8 13 5 13 25 0z
m-545 -80 c16 -18 15 -19 -22 -29 -59 -17 -62 -15 -45 23 16 37 38 38 67 6z
m463 -2 c6 -17 10 -34 7 -36 -3 -3 -24 1 -47 7 l-43 13 28 24 c36 31 40 30 55
-8z m-676 -13 l15 -35 -26 6 c-32 8 -71 31 -71 44 0 7 19 14 55 19 6 0 18 -15
27 -34z m907 19 c9 -8 -24 -31 -58 -43 -19 -6 -36 -10 -38 -8 -2 2 4 18 13 36
14 29 19 31 48 25 17 -3 33 -8 35 -10z m-1072 -106 c-3 -8 -6 -5 -6 6 -1 11 2
17 5 13 3 -3 4 -12 1 -19z m340 -64 c-3 -3 -12 -4 -19 -1 -8 3 -5 6 6 6 11 1
17 -2 13 -5z m740 0 c-3 -3 -12 -4 -19 -1 -8 3 -5 6 6 6 11 1 17 -2 13 -5z
m-370 -420 c-3 -3 -12 -4 -19 -1 -8 3 -5 6 6 6 11 1 17 -2 13 -5z m-60 -60
c-3 -3 -12 -4 -19 -1 -8 3 -5 6 6 6 11 1 17 -2 13 -5z m208 -234 c-3 -5 -12
-10 -18 -10 -7 0 -6 4 3 10 19 12 23 12 15 0z"/>
</g>
</svg>
