<svg xmlns="http://www.w3.org/2000/svg" viewBox="0 0 64 64" role="img" aria-labelledby="title desc">
  <title id="title">Entra Sign-in URL Builder icon</title>
  <desc id="desc">Microsoft Entra styled link builder icon</desc>
  <rect width="64" height="64" rx="14" fill="#f1f5f9"/>
  <path d="M32 8 10 20v24l22 12 22-12V20L32 8z" fill="#2563eb"/>
  <path d="M32 8v48l22-12V20L32 8z" fill="#0f766e"/>
  <path d="M23 33a8 8 0 0 1 8-8h5v6h-5a2 2 0 0 0 0 4h5v6h-5a8 8 0 0 1-8-8z" fill="#fff"/>
  <path d="M28 30h8v6h-8z" fill="#bfdbfe"/>
  <path d="M33 25h5a8 8 0 0 1 0 16h-5v-6h5a2 2 0 0 0 0-4h-5v-6z" fill="#fff"/>
</svg>
