<?xml version="1.0" encoding="UTF-8"?>
<svg xmlns="http://www.w3.org/2000/svg" xmlns:xlink="http://www.w3.org/1999/xlink" viewBox="0 0 512 512" width="512px" height="512px">
<g id="surface27494">
<path style=" stroke:none;fill-rule:nonzero;fill:rgb(0%,0%,0%);fill-opacity:1;" d="M 85.300781 448 C 76.105469 448 66.835938 445.046875 58.996094 438.902344 C 40.511719 424.4375 38.355469 397.054688 52.339844 378.199219 L 142.890625 256 L 52.449219 133.960938 C 38.710938 115.414062 40.289062 88.5 58.089844 73.8125 C 77.109375 58.132812 105.128906 61.707031 119.605469 81.257812 L 242.28125 246.816406 C 244.320312 249.535156 245.332031 252.769531 245.332031 256 C 245.332031 259.230469 244.320312 262.464844 242.304688 265.183594 L 119.617188 430.742188 C 111.242188 442.027344 98.355469 448 85.300781 448 Z M 85.300781 448 "/>
<path style=" stroke:none;fill-rule:nonzero;fill:rgb(20.392157%,59.607846%,85.882354%);fill-opacity:1;" d="M 427.296875 448 C 436.492188 448 445.761719 445.046875 453.601562 438.902344 C 472.085938 424.4375 474.238281 397.054688 460.257812 378.199219 L 369.695312 256 L 460.136719 133.960938 C 473.886719 115.414062 472.296875 88.5 454.496094 73.8125 C 435.476562 58.132812 407.457031 61.707031 392.980469 81.257812 L 270.304688 246.816406 C 268.277344 249.546875 267.273438 252.777344 267.273438 256 C 267.273438 259.230469 268.289062 262.464844 270.304688 265.183594 L 392.980469 430.742188 C 401.355469 442.027344 414.238281 448 427.296875 448 Z M 427.296875 448 "/>
</g>
</svg>
