<svg xmlns="http://www.w3.org/2000/svg" viewBox="0 0 200 200">
  <defs>
    <radialGradient id="signinLogoGradient" cx="50%" cy="50%" r="60%">
      <stop offset="0%" style="stop-color:#c6f8ff;stop-opacity:1" />
      <stop offset="100%" style="stop-color:#a9ff68;stop-opacity:1" />
    </radialGradient>
  </defs>
  <g transform="translate(100, 100)">
    <circle cx="0" cy="0" r="90" fill="url(#signinLogoGradient)" />
    <g transform="scale(7.5) translate(-12, -12)" fill="#ffffff" stroke="#1e1e1e"
       stroke-width="2" stroke-linecap="round" stroke-linejoin="round" fill-opacity="0.9">
      <path d="M21 16V8a2 2 0 0 0-1-1.73l-7-4a2 2 0 0 0-2 0l-7 4A2 2 0 0 0 3 8v8a2 2 0 0 0 1 1.73l7 4a2 2 0 0 0 2 0l7-4A2 2 0 0 0 21 16z"/>
      <polyline points="7.5 4.21 12 6.81 16.5 4.21"/>
      <polyline points="7.5 19.79 7.5 14.6 3 12"/>
      <polyline points="21 12 16.5 14.6 16.5 19.79"/>
      <polyline points="3.27 6.96 12 12.01 20.73 6.96"/>
      <line x1="12" x2="12" y1="22.08" y2="12"/>
    </g>
  </g>
</svg>
